<svg width="194" height="73" viewBox="0 0 194 73" fill="none" xmlns="http://www.w3.org/2000/svg">
<path fill-rule="evenodd" clip-rule="evenodd" d="M78.1781 11.8379L94.9653 23.2989L92.5815 28.9698L74.3983 22.0252L78.1781 11.8379ZM15 58.0513C16.2394 56.2508 17.26 54.5738 18.062 53.0204C18.9004 51.467 19.7024 49.6664 20.4678 47.6187C23.056 49.0662 26.0633 50.196 29.4898 51.008C32.9163 51.82 36.1059 52.226 39.0585 52.226C42.0841 52.226 44.2165 51.9789 45.4559 51.4846C46.6953 50.955 47.315 50.3902 47.315 49.79C47.315 47.6364 43.9249 46.5596 37.1448 46.5596C29.7085 46.5596 24.3136 45.8182 20.96 44.3354C17.6063 42.8173 15.9295 40.3813 15.9295 37.0273C15.9295 32.2612 17.9709 28.7483 22.0535 26.4888C26.1362 24.2293 31.44 23.0996 37.965 23.0996C41.756 23.0996 45.6382 23.5762 49.6115 24.5294C53.6212 25.4473 57.23 26.7183 60.4378 28.3423C59.3807 30.6725 58.2689 33.5145 57.1024 36.8684C56.8837 37.5745 56.7015 38.1041 56.5556 38.4571C54.6966 37.0097 51.8898 35.8093 48.1352 34.8561C44.3806 33.8675 41.0634 33.3733 38.1837 33.3733C34.7207 33.3733 32.3878 33.6027 31.1848 34.0617C29.9819 34.4854 29.3804 35.1208 29.3804 35.9682C29.3804 36.8155 30.2006 37.5039 31.841 38.0335C33.5178 38.5278 35.9236 38.7749 39.0585 38.7749C46.7864 38.7749 52.4001 39.6399 55.8995 41.3698C59.3989 43.0644 61.1486 45.677 61.1486 49.2075C61.1486 54.1501 59.2896 57.7159 55.5714 59.9048C51.8533 62.0584 46.2214 63.1352 38.6758 63.1352C34.6296 63.1352 30.5105 62.7115 26.3184 61.8642C22.1264 60.9816 18.3536 59.7106 15 58.0513ZM101 56.3566C100.708 55.8624 100.562 55.0151 100.562 53.8147V47.5128C100.562 42.6407 99.1955 39.0396 96.4615 36.7095C93.7641 34.3441 89.6085 33.1614 83.9949 33.1614C79.9851 33.1614 76.5768 33.8675 73.77 35.2797C70.9631 36.6566 68.4662 38.6866 66.279 41.3698C69.0494 42.7819 71.8198 44.4413 74.5901 46.3477C71.3094 46.842 68.8854 47.7423 67.3179 49.0485C65.7505 50.3548 64.9667 52.1554 64.9667 54.4502C64.9667 57.2393 65.878 59.3399 67.7007 60.7521C69.5597 62.1643 72.3119 62.8704 75.9571 62.8704C79.092 62.8704 81.6619 62.1643 83.6668 60.7521C85.7081 59.3399 87.2573 57.1863 88.3144 54.2913V55.6152C88.3144 57.7335 88.8248 59.4811 89.8454 60.858C90.8661 62.1996 92.9439 62.8704 96.0788 62.8704C97.5004 62.8704 98.6305 62.8351 99.4689 62.7645C100.344 62.6938 101.364 62.5703 102.531 62.3937L102.75 57.4158C101.875 57.2039 101.291 56.8509 101 56.3566ZM80.222 43.3821C81.6437 42.7819 83.284 42.4819 85.1431 42.4819C86.1273 42.4819 86.8928 42.6407 87.4396 42.9585C87.9864 43.2409 88.2598 43.594 88.2598 44.0176C88.2598 44.5119 87.9864 44.9179 87.4396 45.2356C86.8928 45.5534 85.9451 45.7122 84.5963 45.7122C81.3156 45.7122 78.5817 45.8358 76.3945 46.0829C77.5246 44.8826 78.8004 43.9823 80.222 43.3821ZM84.9244 53.1262C83.284 53.8676 81.4432 54.2383 79.4019 54.2383C77.5063 54.2383 76.5586 53.7264 76.5586 52.7026C76.5586 51.7494 77.5792 51.0786 79.6206 50.6902L81.589 50.3725C83.0835 50.1606 84.3594 49.9488 85.4165 49.737C86.4736 49.4899 87.4396 49.1545 88.3144 48.7308V50.1077C87.6948 51.3434 86.5647 52.3495 84.9244 53.1262ZM127.366 62.6056C127.585 57.4158 127.694 52.632 127.694 48.2542C127.694 46.7008 127.294 45.4651 126.492 44.5472C125.726 43.6293 124.742 43.1703 123.539 43.1703C122.336 43.1703 121.315 43.6999 120.477 44.759C119.639 45.7829 119.146 47.195 119.001 48.9956C118.928 51.6788 118.891 53.5852 118.891 54.715C118.891 57.1157 118.964 59.7459 119.11 62.6056H106.042C106.333 57.5217 106.479 52.7202 106.479 48.2012C106.479 43.6822 106.333 38.8455 106.042 33.691C108.448 33.7969 110.289 33.8498 111.564 33.8498C112.913 33.8498 114.754 33.7969 117.087 33.691L118.673 41.4757C119.511 38.6513 120.823 36.5683 122.609 35.2267C124.396 33.8498 126.473 33.1614 128.843 33.1614C131.03 33.1614 132.925 33.638 134.529 34.5912C136.133 35.5092 137.336 36.7625 138.138 38.3512C138.976 39.9399 139.396 41.7228 139.396 43.6999V51.3257C139.396 56.0212 139.487 59.7812 139.669 62.6056H127.366ZM161.722 63.1352C158.66 63.1352 155.543 62.7291 152.372 61.9171C149.237 61.0698 146.284 59.7989 143.514 58.1042L149.255 50.5313C150.932 51.6964 152.955 52.6143 155.324 53.2851C157.694 53.9206 159.735 54.2383 161.448 54.2383C163.089 54.2383 164.346 54.0265 165.221 53.6029C166.132 53.1439 166.588 52.5614 166.588 51.8553C166.588 51.2904 166.369 50.8491 165.932 50.5313C165.494 50.2136 164.893 50.0547 164.127 50.0547C163.654 50.0547 163.107 50.0724 162.487 50.1077C161.904 50.143 161.43 50.1783 161.065 50.2136C159.17 50.4254 157.22 50.5313 155.215 50.5313C151.971 50.5313 149.328 49.9488 147.286 48.7838C145.282 47.5834 144.279 45.6416 144.279 42.9585C144.279 39.8517 145.792 37.4509 148.817 35.7563C151.843 34.0264 156.29 33.1614 162.159 33.1614C165.039 33.1614 167.937 33.5674 170.853 34.3794C173.806 35.1561 176.412 36.3388 178.672 37.9275L172.384 44.0706C170.306 43.0114 168.356 42.27 166.533 41.8464C164.747 41.3874 162.943 41.1579 161.12 41.1579C159.844 41.1579 158.751 41.4051 157.839 41.8993C156.928 42.3936 156.472 42.9585 156.472 43.594C156.472 44.0882 156.655 44.4766 157.019 44.759C157.42 45.0415 157.931 45.1827 158.55 45.1827C159.17 45.1827 160.027 45.1297 161.12 45.0238C163.781 44.8473 165.768 44.759 167.08 44.759C170.871 44.759 173.806 45.3768 175.883 46.6125C177.961 47.8482 179 49.737 179 52.2789C179 56.0919 177.469 58.8633 174.407 60.5932C171.345 62.2878 167.117 63.1352 161.722 63.1352Z" fill="url(#paint0_linear_16_23)"/>
<defs>
<linearGradient id="paint0_linear_16_23" x1="14.6811" y1="11.6377" x2="179.576" y2="62.6482" gradientUnits="userSpaceOnUse">
<stop stop-color="#AADE93"/>
<stop offset="1" stop-color="#B8C53D"/>
</linearGradient>
</defs>
</svg>
