<svg width="345" height="134" viewBox="0 0 345 134" fill="none" xmlns="http://www.w3.org/2000/svg">
<path d="M202.53 102.202C205.081 104.934 209.111 108.267 214.62 112.201C209.591 114.136 204.954 116.33 200.71 118.782C196.561 121.26 191.863 124.257 186.616 127.773C183.817 124.052 181.434 120.698 179.464 117.711C169.452 120.261 158.178 119.859 145.643 116.505C136.84 114.15 129.362 110.869 123.208 106.66C117.149 102.476 112.83 97.7334 110.25 92.4305C107.791 87.0575 107.329 81.5012 108.865 75.7617C110.221 70.6918 112.802 66.4107 116.607 62.9184C120.412 59.4262 125.611 56.6655 132.203 54.6363C129.661 49.9585 127.976 45.7152 127.149 41.9064C126.418 38.1232 126.577 34.2706 127.627 30.3486C128.983 25.2787 132.02 21.0171 136.737 17.5639C141.455 14.1107 147.125 11.8862 153.749 10.8904C160.398 9.79897 167.071 10.1491 173.769 11.9409C180.467 13.7327 186.363 16.7963 191.458 21.1319C196.579 25.3717 200.234 30.296 202.425 35.9048C204.737 41.4435 205.176 46.8913 203.743 52.2482C202.055 58.5617 198.252 63.3871 192.335 66.7245C195.798 67.9585 200.927 69.4842 207.721 71.3016C209.068 78.5299 208.885 85.3485 207.17 91.7577C206.146 95.584 204.6 99.0655 202.53 102.202ZM168.153 35.8084C166.048 35.2453 164.137 35.2979 162.421 35.9662C160.704 36.6345 159.615 37.8296 159.154 39.5514C158.822 40.795 158.897 42.0453 159.381 43.3023C159.891 44.4637 161.095 46.4772 162.995 49.3428C166.779 48.6125 169.424 47.7313 170.931 46.6993C172.437 45.6672 173.369 44.4816 173.728 43.1424C174.086 41.8031 173.797 40.3932 172.86 38.9125C171.923 37.4319 170.354 36.3972 168.153 35.8084ZM182.016 82.8761C183.128 79.4836 183.074 75.4713 181.852 70.8393C179.536 71.4497 176.872 72.0183 173.86 72.5451C175.294 74.4664 178.013 77.91 182.016 82.8761ZM151.174 91.2313C154.14 92.0248 156.823 92.5374 159.222 92.7691C155.384 87.9499 151.257 82.4893 146.84 76.3875C144.644 76.9278 143.036 77.5739 142.015 78.3257C140.993 79.0775 140.342 79.9795 140.06 81.0318C139.472 83.2319 139.933 85.1491 141.444 86.7834C142.955 88.4176 146.198 89.9002 151.174 91.2313Z" fill="url(#paint0_linear_33_103)"/>
<path d="M16.8905 24.2214C21.4265 24.2214 24.5835 25.0306 26.3614 26.649C28.1394 28.2446 29.0284 30.5012 29.0284 33.4188C29.0284 35.4247 28.6751 37.1343 27.9684 38.5475C27.2618 39.938 26.0195 41.0321 24.2416 41.8299C22.4636 42.6049 20.0133 42.9924 16.8905 42.9924H9.77869V49.0101H1.36765C1.55 44.588 1.64118 40.4508 1.64118 36.5986C1.64118 32.7464 1.55 28.6093 1.36765 24.1872H9.77869V24.2214H16.8905ZM14.4971 36.3935C16.389 36.3935 17.8022 36.3251 18.7368 36.1883C19.6942 36.0288 20.3552 35.7553 20.7199 35.3678C21.1074 34.9803 21.3011 34.4104 21.3011 33.6582C21.3011 32.906 21.1188 32.3475 20.7541 31.9828C20.4122 31.5953 19.7625 31.3332 18.8052 31.1964C17.8706 31.0597 16.4346 30.9913 14.4971 30.9913H9.77869V36.3935H14.4971ZM39.7874 35.3336C39.7646 36.7012 39.7532 38.7983 39.7532 41.6247C39.7532 45.0211 39.776 47.4828 39.8216 49.0101H31.7524L31.7866 45.1464C31.8322 40.9067 31.855 37.6358 31.855 35.3336C31.855 33.1453 31.8322 30.0453 31.7866 26.0335L31.7524 22.3409H39.8216C39.776 25.5777 39.7532 28.2218 39.7532 30.2733C39.7532 32.5527 39.7646 34.2394 39.7874 35.3336ZM64.4873 43.3343C64.4873 44.1093 64.5785 44.6564 64.7609 44.9755C64.9432 45.2946 65.3079 45.5225 65.855 45.6593L65.7182 48.8733C64.9888 48.9873 64.3506 49.067 63.8035 49.1126C63.2793 49.1582 62.5726 49.181 61.6837 49.181C59.7234 49.181 58.4241 48.7479 57.7859 47.8817C57.1476 46.9928 56.8285 45.8645 56.8285 44.4968V43.642C56.1675 45.5112 55.1987 46.9016 53.9223 47.8134C52.6686 48.7251 51.0616 49.181 49.1013 49.181C46.8219 49.181 45.1009 48.7251 43.9384 47.8134C42.7987 46.9016 42.2289 45.5453 42.2289 43.7446C42.2289 42.263 42.7189 41.1005 43.6991 40.2571C44.6792 39.4137 46.195 38.8325 48.2465 38.5133C46.5142 37.2825 44.7818 36.2111 43.0494 35.2994C44.4171 33.567 45.9785 32.2563 47.7336 31.3674C49.4888 30.4556 51.62 29.9997 54.1274 29.9997C57.6377 29.9997 60.2362 30.7633 61.923 32.2905C63.6326 33.795 64.4873 36.12 64.4873 39.2656V43.3343ZM54.8454 36.0174C53.6829 36.0174 52.6572 36.2111 51.7682 36.5986C50.8792 36.9861 50.0814 37.5674 49.3748 38.3424C50.7425 38.1828 52.452 38.1031 54.5035 38.1031C55.3469 38.1031 55.9395 38.0005 56.2815 37.7953C56.6234 37.5902 56.7943 37.328 56.7943 37.0089C56.7943 36.7354 56.6234 36.5075 56.2815 36.3251C55.9395 36.12 55.4609 36.0174 54.8454 36.0174ZM51.2553 43.6078C52.5318 43.6078 53.6829 43.3685 54.7087 42.8898C55.7344 42.3884 56.441 41.7387 56.8285 40.9409V40.052C56.2815 40.3255 55.6774 40.542 55.0164 40.7016C54.3553 40.8383 53.5575 40.9751 52.623 41.1119L51.3921 41.317C50.1156 41.5678 49.4774 42.0009 49.4774 42.6163C49.4774 43.2773 50.07 43.6078 51.2553 43.6078ZM90.4115 30.3416L89.6251 32.3247C87.4597 38.0917 85.1917 43.6534 82.8211 49.0101C81.5902 51.7454 79.8122 53.9336 77.4872 55.5748C75.1622 57.2387 72.2446 58.0365 68.7343 57.9682C68.3012 56.0762 67.9365 54.5946 67.6402 53.5233C67.3666 52.4748 67.0019 51.4148 66.546 50.3435C67.7997 50.6398 68.9736 50.788 70.0677 50.788C71.8457 50.788 73.2589 50.4119 74.3074 49.6597C73.4869 47.2207 72.5181 44.5994 71.4012 41.7957C70.2843 38.992 68.6659 35.174 66.546 30.3416H74.6494C74.9229 31.4813 75.299 32.8034 75.7777 34.3078C76.2563 35.8122 76.735 37.2597 77.2137 38.6501C77.3505 39.0832 77.567 39.7442 77.8633 40.6332C78.1825 41.4994 78.4332 42.2288 78.6155 42.8214L79.5045 40.1203C81.2141 35.174 82.2284 31.9144 82.5475 30.3416H90.4115ZM114.121 36.4619C112.024 36.3251 110.109 36.2225 108.377 36.1541L108.343 39.7784C108.343 41.0093 108.605 41.9781 109.129 42.6847C109.676 43.3685 110.633 43.7104 112.001 43.7104C112.525 43.7104 113.027 43.6648 113.506 43.5736C113.414 44.417 113.369 45.2718 113.369 46.138C113.369 46.5483 113.392 47.4828 113.437 48.9417C112.434 49.124 111.591 49.238 110.907 49.2836C110.223 49.3292 109.334 49.352 108.24 49.352C105.573 49.352 103.681 48.7137 102.564 47.4373C101.47 46.138 100.923 44.3373 100.923 42.035L100.957 36.2567C99.8861 36.3023 98.7691 36.3707 97.6066 36.4619V30.41C98.7919 30.41 99.7949 30.0339 100.615 29.2817C101.436 28.5295 101.926 27.6291 102.086 26.5806H111.386C110.223 28.1762 108.935 29.4527 107.522 30.41H114.121V36.4619ZM127.172 49.352C123.274 49.352 120.402 48.463 118.555 46.6851C116.732 44.8843 115.82 42.5251 115.82 39.6075C115.82 36.7582 116.732 34.4446 118.555 32.6666C120.402 30.8887 123.274 29.9997 127.172 29.9997C129.793 29.9997 131.981 30.4328 133.736 31.299C135.514 32.1424 136.825 33.2935 137.668 34.7523C138.512 36.1883 138.933 37.8067 138.933 39.6075C138.933 42.5479 137.953 44.9071 135.993 46.6851C134.055 48.463 131.115 49.352 127.172 49.352ZM127.308 43.5395C128.79 43.5395 129.896 43.1861 130.625 42.4795C131.354 41.7729 131.719 40.827 131.719 39.6417C131.719 38.5247 131.354 37.613 130.625 36.9064C129.896 36.1769 128.79 35.8122 127.308 35.8122C125.827 35.8122 124.744 36.1655 124.06 36.8722C123.376 37.5788 123.034 38.5019 123.034 39.6417C123.034 40.827 123.376 41.7729 124.06 42.4795C124.744 43.1861 125.827 43.5395 127.308 43.5395ZM157.476 30.3416H164.041C163.927 34.0799 163.87 39.3909 163.87 46.2748C163.87 48.9873 163.323 51.2097 162.229 52.942C161.158 54.6744 159.733 55.9281 157.955 56.7031C156.177 57.5009 154.194 57.8998 152.006 57.8998C149.84 57.8998 147.903 57.5807 146.193 56.9424C144.484 56.327 143.184 55.495 142.295 54.4465L143.834 49.2152C145.065 49.9218 146.227 50.4233 147.321 50.7196C148.416 51.0387 149.555 51.1983 150.741 51.1983C154.616 51.1983 156.553 49.5571 156.553 46.2748C156.553 45.7961 156.565 45.4542 156.587 45.249C156.587 45.1123 156.587 44.9299 156.587 44.702C156.61 44.474 156.61 44.1777 156.587 43.813C155.425 47.0498 152.963 48.6681 149.202 48.6681C147.675 48.6681 146.307 48.2578 145.099 47.4373C143.914 46.6167 142.991 45.5112 142.33 44.1207C141.669 42.7075 141.338 41.1575 141.338 39.4707C141.338 37.7383 141.669 36.1541 142.33 34.7181C142.991 33.2593 143.914 32.1082 145.099 31.2648C146.284 30.4214 147.618 29.9997 149.099 29.9997C152.952 29.9997 155.459 31.356 156.622 34.0685L157.476 30.3416ZM152.758 43.1975C153.282 43.1975 153.829 43.0836 154.399 42.8556C154.969 42.6049 155.459 42.2174 155.869 41.6931C156.28 41.1461 156.485 40.4736 156.485 39.6758C156.485 38.2626 156.166 37.2597 155.527 36.667C154.889 36.0516 153.943 35.7439 152.69 35.7439C151.595 35.7439 150.729 36.1086 150.091 36.838C149.453 37.5674 149.134 38.5133 149.134 39.6758C149.134 40.7244 149.476 41.5792 150.159 42.2402C150.866 42.8784 151.732 43.1975 152.758 43.1975ZM184.868 40.4622H173.722C173.904 41.4652 174.349 42.2858 175.055 42.924C175.785 43.5395 176.811 43.8472 178.133 43.8472C179.09 43.8472 179.99 43.6648 180.834 43.3001C181.677 42.9126 182.35 42.377 182.851 41.6931C184.378 42.4453 186.407 43.2545 188.937 44.1207C188.23 45.7163 186.943 46.9928 185.073 47.9501C183.227 48.8847 180.811 49.352 177.825 49.352C173.95 49.352 171.078 48.463 169.209 46.6851C167.362 44.8843 166.439 42.5251 166.439 39.6075C166.439 36.7582 167.362 34.4446 169.209 32.6666C171.055 30.8887 173.927 29.9997 177.825 29.9997C180.15 29.9997 182.167 30.3872 183.877 31.1622C185.586 31.9372 186.897 33.02 187.809 34.4104C188.72 35.778 189.176 37.3508 189.176 39.1288C189.176 39.7214 189.154 40.1659 189.108 40.4622H184.868ZM178.304 35.1626C177.164 35.1626 176.229 35.3791 175.5 35.8122C174.77 36.2453 174.258 36.838 173.961 37.5902H182.03C181.757 36.8608 181.312 36.2795 180.697 35.8464C180.082 35.3905 179.284 35.1626 178.304 35.1626ZM207.045 36.4619C204.948 36.3251 203.033 36.2225 201.301 36.1541L201.267 39.7784C201.267 41.0093 201.529 41.9781 202.053 42.6847C202.6 43.3685 203.558 43.7104 204.925 43.7104C205.449 43.7104 205.951 43.6648 206.43 43.5736C206.338 44.417 206.293 45.2718 206.293 46.138C206.293 46.5483 206.316 47.4828 206.361 48.9417C205.358 49.124 204.515 49.238 203.831 49.2836C203.147 49.3292 202.258 49.352 201.164 49.352C198.497 49.352 196.605 48.7137 195.488 47.4373C194.394 46.138 193.847 44.3373 193.847 42.035L193.881 36.2567C192.81 36.3023 191.693 36.3707 190.531 36.4619V30.41C191.716 30.41 192.719 30.0339 193.54 29.2817C194.36 28.5295 194.85 27.6291 195.01 26.5806H204.31C203.147 28.1762 201.859 29.4527 200.446 30.41H207.045V36.4619ZM222.421 49.0101C222.557 45.6593 222.626 42.5707 222.626 39.7442C222.626 38.7413 222.375 37.9435 221.874 37.3508C221.395 36.7582 220.78 36.4619 220.027 36.4619C219.23 36.4619 218.546 36.8494 217.976 37.6244C217.429 38.3994 217.155 39.4593 217.155 40.8042L217.121 40.7358C217.121 44.4512 217.167 47.2093 217.258 49.0101H209.086C209.268 45.7277 209.36 41.2828 209.36 35.6755C209.36 30.0681 209.268 25.6232 209.086 22.3409H217.224L217.258 32.8718L217.224 34.6839C217.771 33.0883 218.58 31.9144 219.651 31.1622C220.745 30.3872 221.976 29.9997 223.344 29.9997C224.712 29.9997 225.897 30.3074 226.9 30.9229C227.903 31.5155 228.655 32.3247 229.156 33.3505C229.681 34.3762 229.943 35.5273 229.943 36.8038V41.7273C229.943 44.7589 230 47.1865 230.114 49.0101H222.421ZM250.947 40.4622H239.801C239.983 41.4652 240.427 42.2858 241.134 42.924C241.863 43.5395 242.889 43.8472 244.211 43.8472C245.169 43.8472 246.069 43.6648 246.912 43.3001C247.756 42.9126 248.428 42.377 248.93 41.6931C250.457 42.4453 252.485 43.2545 255.016 44.1207C254.309 45.7163 253.021 46.9928 251.152 47.9501C249.306 48.8847 246.89 49.352 243.903 49.352C240.028 49.352 237.156 48.463 235.287 46.6851C233.441 44.8843 232.518 42.5251 232.518 39.6075C232.518 36.7582 233.441 34.4446 235.287 32.6666C237.134 30.8887 240.006 29.9997 243.903 29.9997C246.228 29.9997 248.246 30.3872 249.955 31.1622C251.665 31.9372 252.976 33.02 253.887 34.4104C254.799 35.778 255.255 37.3508 255.255 39.1288C255.255 39.7214 255.232 40.1659 255.187 40.4622H250.947ZM244.382 35.1626C243.242 35.1626 242.308 35.3791 241.578 35.8122C240.849 36.2453 240.336 36.838 240.04 37.5902H248.109C247.835 36.8608 247.391 36.2795 246.776 35.8464C246.16 35.3905 245.362 35.1626 244.382 35.1626ZM265.567 35.4019C266.525 31.96 268.907 30.2391 272.713 30.2391C273.374 30.2391 274.013 30.2847 274.628 30.3758L273.534 38.0347C271.893 37.4192 270.548 37.1115 269.499 37.1115C268.2 37.1115 267.243 37.499 266.627 38.274C266.012 39.049 265.704 40.0861 265.704 41.3854V41.3512L265.67 43.6078C265.67 45.2262 265.716 47.027 265.807 49.0101H257.635C257.817 45.7277 257.909 42.6277 257.909 39.71C257.909 36.7924 257.817 33.6696 257.635 30.3416C259.139 30.41 260.291 30.4442 261.088 30.4442C261.932 30.4442 263.083 30.41 264.542 30.3416L265.567 35.4019Z" fill="#222222"/>
<path d="M125.667 88.3537C128.803 88.3537 131.28 88.7374 133.098 89.5046C134.916 90.2551 136.183 91.3059 136.9 92.6568C137.634 93.9911 138.001 95.634 138.001 97.5854C138.001 99.4367 137.584 101.055 136.75 102.439C135.916 103.823 134.665 104.899 132.998 105.666C131.33 106.417 129.278 106.792 126.843 106.792C125.359 106.792 123.849 106.792 122.315 106.792C120.781 106.792 119.229 106.784 117.662 106.767C117.795 103.481 117.862 100.421 117.862 97.5854C117.862 94.7166 117.795 91.7228 117.662 88.6039C119.646 88.4371 122.315 88.3537 125.667 88.3537ZM127.544 101.813C129.095 101.813 130.129 101.438 130.646 100.688C131.163 99.9371 131.421 98.903 131.421 97.5854C131.421 96.3178 131.146 95.2921 130.596 94.5082C130.062 93.7243 129.045 93.3323 127.544 93.3323C125.926 93.3323 124.717 93.3824 123.916 93.4824V101.813H127.544ZM148.048 107.042C145.196 107.042 143.094 106.392 141.743 105.091C140.409 103.773 139.742 102.047 139.742 99.912C139.742 97.8272 140.409 96.1343 141.743 94.8334C143.094 93.5325 145.196 92.882 148.048 92.882C149.966 92.882 151.567 93.1989 152.851 93.8327C154.152 94.4498 155.111 95.2921 155.728 96.3595C156.346 97.4103 156.654 98.5944 156.654 99.912C156.654 102.064 155.937 103.79 154.503 105.091C153.085 106.392 150.933 107.042 148.048 107.042ZM148.148 102.789C149.232 102.789 150.041 102.531 150.575 102.014C151.108 101.497 151.375 100.804 151.375 99.9371C151.375 99.1198 151.108 98.4527 150.575 97.9356C150.041 97.4019 149.232 97.1351 148.148 97.1351C147.064 97.1351 146.272 97.3936 145.771 97.9106C145.271 98.4276 145.021 99.1031 145.021 99.9371C145.021 100.804 145.271 101.497 145.771 102.014C146.272 102.531 147.064 102.789 148.148 102.789ZM168.171 106.792C168.271 104.34 168.321 102.08 168.321 100.012C168.321 99.2783 168.137 98.6945 167.77 98.2609C167.42 97.8272 166.97 97.6104 166.419 97.6104C165.869 97.6104 165.402 97.8606 165.018 98.3609C164.635 98.8446 164.41 99.5118 164.343 100.362C164.309 101.63 164.293 102.531 164.293 103.064C164.293 104.198 164.326 105.441 164.393 106.792H158.414C158.547 104.39 158.614 102.122 158.614 99.9871C158.614 97.8522 158.547 95.5673 158.414 93.1322C159.514 93.1822 160.357 93.2072 160.94 93.2072C161.557 93.2072 162.4 93.1822 163.467 93.1322L164.193 96.8098C164.576 95.4755 165.177 94.4915 165.994 93.8577C166.811 93.2072 167.762 92.882 168.846 92.882C169.847 92.882 170.714 93.1072 171.448 93.5575C172.182 93.9911 172.732 94.5832 173.099 95.3338C173.483 96.0843 173.675 96.9266 173.675 97.8606V101.463C173.675 103.681 173.716 105.458 173.8 106.792H168.171ZM181.413 95.9592H175.559V87.278H181.413V95.9592ZM194.496 97.6104C192.961 97.5103 191.56 97.4353 190.293 97.3852L190.268 100.037C190.268 100.938 190.46 101.647 190.843 102.164C191.244 102.664 191.944 102.914 192.945 102.914C193.328 102.914 193.695 102.881 194.046 102.814C193.979 103.431 193.946 104.057 193.946 104.69C193.946 104.991 193.962 105.675 193.996 106.742C193.262 106.875 192.645 106.959 192.144 106.992C191.644 107.025 190.993 107.042 190.193 107.042C188.241 107.042 186.857 106.575 186.04 105.641C185.239 104.69 184.839 103.373 184.839 101.688L184.864 97.4603C184.08 97.4936 183.263 97.5437 182.412 97.6104V93.1822C183.28 93.1822 184.013 92.907 184.614 92.3566C185.214 91.8062 185.573 91.1474 185.69 90.3802H192.494C191.644 91.5477 190.702 92.4817 189.667 93.1822H194.496V97.6104ZM211.856 92.882C212.973 92.882 213.966 93.2239 214.833 93.9077C215.717 94.5749 216.401 95.4672 216.884 96.5847C217.368 97.6854 217.61 98.8613 217.61 100.112C217.61 101.38 217.368 102.547 216.884 103.615C216.401 104.665 215.725 105.499 214.858 106.117C213.991 106.734 213.015 107.042 211.931 107.042C210.663 107.042 209.562 106.775 208.628 106.242C207.694 105.691 206.994 104.832 206.527 103.665L205.801 106.792H200.998C201.098 103.656 201.148 100.412 201.148 97.06C201.148 93.6742 201.098 90.4302 200.998 87.328H206.652L206.577 90.4052C206.493 92.5734 206.452 94.5082 206.452 96.2094C206.902 95.0752 207.586 94.2413 208.503 93.7076C209.437 93.1572 210.555 92.882 211.856 92.882ZM209.304 102.839C210.104 102.839 210.738 102.572 211.205 102.039C211.672 101.505 211.906 100.813 211.906 99.9621C211.906 99.1949 211.647 98.5778 211.13 98.1108C210.63 97.6271 210.004 97.3852 209.254 97.3852C208.87 97.3852 208.47 97.477 208.053 97.6604C207.636 97.8272 207.277 98.1108 206.977 98.511C206.677 98.8947 206.527 99.3783 206.527 99.9621C206.527 100.996 206.76 101.738 207.227 102.189C207.694 102.622 208.386 102.839 209.304 102.839ZM232.849 100.537H224.693C224.827 101.271 225.152 101.872 225.669 102.339C226.203 102.789 226.953 103.014 227.921 103.014C228.621 103.014 229.28 102.881 229.897 102.614C230.514 102.33 231.006 101.939 231.373 101.438C232.491 101.989 233.975 102.581 235.826 103.214C235.309 104.382 234.367 105.316 232.999 106.016C231.648 106.7 229.88 107.042 227.696 107.042C224.86 107.042 222.759 106.392 221.391 105.091C220.04 103.773 219.365 102.047 219.365 99.912C219.365 97.8272 220.04 96.1343 221.391 94.8334C222.742 93.5325 224.843 92.882 227.696 92.882C229.397 92.882 230.873 93.1655 232.124 93.7326C233.375 94.2997 234.334 95.0919 235.001 96.1093C235.668 97.11 236.002 98.2609 236.002 99.5618C236.002 99.9954 235.985 100.321 235.951 100.537H232.849ZM228.046 96.6597C227.212 96.6597 226.528 96.8182 225.994 97.1351C225.461 97.4519 225.085 97.8856 224.869 98.436H230.773C230.573 97.9023 230.247 97.477 229.797 97.1601C229.347 96.8265 228.763 96.6597 228.046 96.6597ZM248.631 96.7848C248.614 97.7855 248.606 99.32 248.606 101.388C248.606 103.873 248.622 105.675 248.656 106.792H242.751L242.776 103.965C242.81 100.863 242.827 98.4693 242.827 96.7848C242.827 95.1837 242.81 92.9154 242.776 89.9799L242.751 87.278H248.656C248.622 89.6463 248.606 91.5811 248.606 93.0821C248.606 94.75 248.614 95.9842 248.631 96.7848ZM254.02 91.6561C252.969 91.6561 252.185 91.3976 251.668 90.8806C251.168 90.3635 250.918 89.688 250.918 88.8541C250.918 88.0368 251.168 87.3614 251.668 86.8276C252.185 86.2939 252.969 86.0271 254.02 86.0271C255.02 86.0271 255.788 86.3023 256.321 86.8527C256.855 87.3864 257.122 88.0535 257.122 88.8541C257.122 89.688 256.863 90.3635 256.346 90.8806C255.829 91.3976 255.054 91.6561 254.02 91.6561ZM251.118 106.792C251.234 104.107 251.293 101.888 251.293 100.137C251.293 98.0524 251.226 95.7174 251.093 93.1322H257.097C256.964 95.6173 256.897 97.9523 256.897 100.137C256.897 101.972 256.955 104.19 257.072 106.792H251.118ZM278.754 106.792C278.887 104.607 278.954 102.347 278.954 100.012C278.954 99.2616 278.762 98.6778 278.379 98.2609C278.012 97.8272 277.52 97.6104 276.903 97.6104C276.336 97.6104 275.843 97.8606 275.427 98.3609C275.026 98.8613 274.826 99.5868 274.826 100.537V100.512C274.826 103.465 274.868 105.558 274.951 106.792H269.322C269.422 104.34 269.472 102.08 269.472 100.012C269.472 99.2783 269.289 98.6945 268.922 98.2609C268.572 97.8272 268.121 97.6104 267.571 97.6104C266.987 97.6104 266.495 97.8606 266.095 98.3609C265.711 98.8446 265.486 99.5118 265.419 100.362C265.386 101.63 265.369 102.531 265.369 103.064C265.369 104.198 265.403 105.441 265.469 106.792H259.49C259.623 104.39 259.69 102.122 259.69 99.9871C259.69 97.8522 259.623 95.5673 259.49 93.1322C260.591 93.1822 261.433 93.2072 262.017 93.2072C262.634 93.2072 263.476 93.1822 264.544 93.1322L265.294 96.8348C265.678 95.4839 266.287 94.4915 267.121 93.8577C267.954 93.2072 268.914 92.882 269.998 92.882C271.299 92.882 272.358 93.2406 273.175 93.9578C274.009 94.675 274.526 95.609 274.726 96.7598C275.11 95.5756 275.752 94.6333 276.652 93.9328C277.553 93.2322 278.579 92.882 279.73 92.882C281.231 92.882 282.407 93.3907 283.257 94.4081C284.108 95.4088 284.533 96.7848 284.533 98.5361V102.689C284.533 104.574 284.55 105.941 284.583 106.792H278.754ZM290.179 91.6561C289.128 91.6561 288.344 91.3976 287.827 90.8806C287.326 90.3635 287.076 89.688 287.076 88.8541C287.076 88.0368 287.326 87.3614 287.827 86.8276C288.344 86.2939 289.128 86.0271 290.179 86.0271C291.179 86.0271 291.946 86.3023 292.48 86.8527C293.014 87.3864 293.281 88.0535 293.281 88.8541C293.281 89.688 293.022 90.3635 292.505 90.8806C291.988 91.3976 291.213 91.6561 290.179 91.6561ZM287.276 106.792C287.393 104.107 287.452 101.888 287.452 100.137C287.452 98.0524 287.385 95.7174 287.251 93.1322H293.256C293.122 95.6173 293.056 97.9523 293.056 100.137C293.056 101.972 293.114 104.19 293.231 106.792H287.276ZM306.857 97.6104C305.322 97.5103 303.921 97.4353 302.654 97.3852L302.629 100.037C302.629 100.938 302.821 101.647 303.204 102.164C303.605 102.664 304.305 102.914 305.306 102.914C305.689 102.914 306.056 102.881 306.407 102.814C306.34 103.431 306.307 104.057 306.307 104.69C306.307 104.991 306.323 105.675 306.357 106.742C305.623 106.875 305.006 106.959 304.505 106.992C304.005 107.025 303.354 107.042 302.554 107.042C300.602 107.042 299.218 106.575 298.401 105.641C297.6 104.69 297.2 103.373 297.2 101.688L297.225 97.4603C296.441 97.4936 295.624 97.5437 294.773 97.6104V93.1822C295.641 93.1822 296.374 92.907 296.975 92.3566C297.575 91.8062 297.934 91.1474 298.051 90.3802H304.855C304.005 91.5477 303.063 92.4817 302.028 93.1822H306.857V97.6104ZM321.585 100.537H313.429C313.562 101.271 313.888 101.872 314.405 102.339C314.938 102.789 315.689 103.014 316.656 103.014C317.357 103.014 318.016 102.881 318.633 102.614C319.25 102.33 319.742 101.939 320.109 101.438C321.226 101.989 322.711 102.581 324.562 103.214C324.045 104.382 323.103 105.316 321.735 106.016C320.384 106.7 318.616 107.042 316.431 107.042C313.596 107.042 311.494 106.392 310.127 105.091C308.776 103.773 308.1 102.047 308.1 99.912C308.1 97.8272 308.776 96.1343 310.127 94.8334C311.478 93.5325 313.579 92.882 316.431 92.882C318.132 92.882 319.608 93.1655 320.859 93.7326C322.11 94.2997 323.069 95.0919 323.736 96.1093C324.404 97.11 324.737 98.2609 324.737 99.5618C324.737 99.9954 324.72 100.321 324.687 100.537H321.585ZM316.781 96.6597C315.947 96.6597 315.264 96.8182 314.73 97.1351C314.196 97.4519 313.821 97.8856 313.604 98.436H319.508C319.308 97.9023 318.983 97.477 318.533 97.1601C318.082 96.8265 317.499 96.6597 316.781 96.6597ZM342.84 87.328C342.74 90.4302 342.69 93.6742 342.69 97.06C342.69 100.412 342.74 103.656 342.84 106.792H337.186L337.261 103.79C336.778 104.907 336.077 105.733 335.16 106.267C334.243 106.784 333.158 107.042 331.908 107.042C330.823 107.042 329.848 106.734 328.98 106.117C328.113 105.499 327.438 104.665 326.954 103.615C326.47 102.547 326.228 101.38 326.228 100.112C326.228 98.8613 326.47 97.6854 326.954 96.5847C327.438 95.4672 328.113 94.5749 328.98 93.9077C329.864 93.2239 330.865 92.882 331.983 92.882C333.284 92.882 334.393 93.1572 335.31 93.7076C336.244 94.2413 336.936 95.0752 337.386 96.2094C337.386 95.2587 337.353 93.7326 337.286 91.6311C337.22 89.5963 337.186 88.1619 337.186 87.328H342.84ZM334.534 102.839C335.352 102.839 336.019 102.614 336.536 102.164C337.053 101.697 337.311 100.963 337.311 99.9621C337.311 99.0781 337.053 98.4276 336.536 98.0107C336.019 97.5937 335.368 97.3852 334.584 97.3852C333.834 97.3852 333.2 97.6271 332.683 98.1108C332.183 98.5778 331.933 99.1949 331.933 99.9621C331.933 100.813 332.166 101.505 332.633 102.039C333.1 102.572 333.734 102.839 334.534 102.839Z" fill="#222222"/>
<defs>
<linearGradient id="paint0_linear_33_103" x1="129.032" y1="-0.465364" x2="243.491" y2="42.6828" gradientUnits="userSpaceOnUse">
<stop stop-color="#AADE93"/>
<stop offset="1" stop-color="#B8C53D"/>
</linearGradient>
</defs>
</svg>
