<svg width="291" height="59" viewBox="0 0 291 59" fill="none" xmlns="http://www.w3.org/2000/svg">
<path d="M27.1357 23.4332C23.6928 23.2086 20.5493 23.0402 17.7051 22.928L17.649 28.8783C17.649 30.8991 18.0793 32.4896 18.9401 33.6497C19.8382 34.7724 21.41 35.3338 23.6554 35.3338C24.5161 35.3338 25.3394 35.2589 26.1253 35.1092C25.9756 36.4939 25.9008 37.8973 25.9008 39.3193C25.9008 39.993 25.9382 41.5273 26.013 43.9224C24.3664 44.2218 22.9818 44.4089 21.8591 44.4837C20.7364 44.5586 19.2769 44.596 17.4806 44.596C13.102 44.596 9.99591 43.5482 8.16217 41.4525C6.36586 39.3193 5.4677 36.3629 5.4677 32.5832L5.52383 23.0964C3.76494 23.1712 1.93121 23.2835 0.0226214 23.4332V13.4973C1.96863 13.4973 3.61525 12.8798 4.96249 11.6449C6.30972 10.4099 7.11432 8.93169 7.37628 7.21023H22.645C20.7364 9.82985 18.622 11.9255 16.3017 13.4973H27.1357V23.4332ZM48.5621 44.596C42.1628 44.596 37.4474 43.1365 34.4162 40.2175C31.4223 37.2611 29.9254 33.3878 29.9254 28.5976C29.9254 23.9197 31.4223 20.1212 34.4162 17.2022C37.4474 14.2832 42.1628 12.8237 48.5621 12.8237C52.8658 12.8237 56.4584 13.5347 59.34 14.9568C62.259 16.3415 64.4109 18.2314 65.7955 20.6264C67.1802 22.9841 67.8725 25.6412 67.8725 28.5976C67.8725 33.4252 66.2633 37.2985 63.0449 40.2175C59.8639 43.1365 55.0364 44.596 48.5621 44.596ZM48.7867 35.0531C51.2192 35.0531 53.0342 34.473 54.2318 33.3129C55.4293 32.1528 56.0281 30.5997 56.0281 28.6537C56.0281 26.82 55.4293 25.3231 54.2318 24.1629C53.0342 22.9654 51.2192 22.3666 48.7867 22.3666C46.3542 22.3666 44.5766 22.9467 43.4539 24.1068C42.3312 25.2669 41.7698 26.7826 41.7698 28.6537C41.7698 30.5997 42.3312 32.1528 43.4539 33.3129C44.5766 34.473 46.3542 35.0531 48.7867 35.0531ZM98.316 13.3851H109.094C108.907 19.5225 108.813 28.2421 108.813 39.5439C108.813 43.9972 107.915 47.646 106.119 50.4902C104.36 53.3343 102.021 55.3926 99.1019 56.665C96.1829 57.9748 92.9271 58.6297 89.3344 58.6297C85.7792 58.6297 82.5983 58.1058 79.7915 57.0579C76.9848 56.0475 74.8516 54.6816 73.3921 52.9601L75.9182 44.3715C77.9391 45.5316 79.8476 46.3549 81.644 46.8414C83.4403 47.3653 85.3114 47.6273 87.2574 47.6273C93.6194 47.6273 96.8004 44.9328 96.8004 39.5439C96.8004 38.758 96.8191 38.1966 96.8565 37.8598C96.8565 37.6353 96.8565 37.3359 96.8565 36.9617C96.8939 36.5874 96.8939 36.1009 96.8565 35.5022C94.9479 40.8163 90.9062 43.4733 84.7314 43.4733C82.224 43.4733 79.9786 42.7997 77.9952 41.4525C76.0492 40.1052 74.5336 38.2902 73.4483 36.0074C72.363 33.6871 71.8204 31.1424 71.8204 28.3731C71.8204 25.5289 72.363 22.928 73.4483 20.5703C74.5336 18.1752 76.0492 16.2854 77.9952 14.9007C79.9412 13.516 82.1305 12.8237 84.563 12.8237C90.8875 12.8237 95.004 15.0504 96.9126 19.5038L98.316 13.3851ZM90.5694 34.4917C91.4301 34.4917 92.3283 34.3046 93.2639 33.9304C94.1994 33.5187 95.004 32.8825 95.6777 32.0218C96.3513 31.1237 96.6881 30.0197 96.6881 28.7099C96.6881 26.3896 96.1642 24.743 95.1163 23.77C94.0685 22.7596 92.5154 22.2544 90.4571 22.2544C88.6608 22.2544 87.2387 22.8531 86.1909 24.0507C85.143 25.2482 84.6191 26.8013 84.6191 28.7099C84.6191 30.4313 85.1805 31.8347 86.3032 32.92C87.4633 33.9678 88.8854 34.4917 90.5694 34.4917ZM143.288 30.001H124.988C125.287 31.6476 126.017 32.9948 127.177 34.0427C128.375 35.0531 130.059 35.5583 132.229 35.5583C133.801 35.5583 135.279 35.2589 136.664 34.6602C138.049 34.024 139.153 33.1445 139.976 32.0218C142.483 33.2568 145.814 34.5853 149.968 36.0074C148.808 38.627 146.693 40.7227 143.625 42.2945C140.593 43.8288 136.627 44.596 131.724 44.596C125.362 44.596 120.647 43.1365 117.578 40.2175C114.547 37.2611 113.031 33.3878 113.031 28.5976C113.031 23.9197 114.547 20.1212 117.578 17.2022C120.609 14.2832 125.325 12.8237 131.724 12.8237C135.541 12.8237 138.853 13.4599 141.66 14.7323C144.467 16.0047 146.619 17.7823 148.115 20.0651C149.612 22.3105 150.361 24.8927 150.361 27.8117C150.361 28.7847 150.323 29.5145 150.249 30.001H143.288ZM132.51 21.3001C130.639 21.3001 129.104 21.6556 127.907 22.3666C126.709 23.0777 125.867 24.0507 125.381 25.2856H138.629C138.18 24.0881 137.45 23.1338 136.439 22.4228C135.429 21.6743 134.119 21.3001 132.51 21.3001ZM179.697 23.4332C176.255 23.2086 173.111 23.0402 170.267 22.928L170.211 28.8783C170.211 30.8991 170.641 32.4896 171.502 33.6497C172.4 34.7724 173.972 35.3338 176.217 35.3338C177.078 35.3338 177.901 35.2589 178.687 35.1092C178.537 36.4939 178.462 37.8973 178.462 39.3193C178.462 39.993 178.5 41.5273 178.575 43.9224C176.928 44.2218 175.543 44.4089 174.421 44.4837C173.298 44.5586 171.839 44.596 170.042 44.596C165.664 44.596 162.558 43.5482 160.724 41.4525C158.928 39.3193 158.029 36.3629 158.029 32.5832L158.086 23.0964C156.327 23.1712 154.493 23.2835 152.584 23.4332V13.4973C154.53 13.4973 156.177 12.8798 157.524 11.6449C158.871 10.4099 159.676 8.93169 159.938 7.21023H175.207C173.298 9.82985 171.184 11.9255 168.863 13.4973H179.697V23.4332ZM204.941 44.0347C205.166 38.5335 205.278 33.4626 205.278 28.8221C205.278 27.1755 204.866 25.8657 204.043 24.8927C203.257 23.9197 202.247 23.4332 201.012 23.4332C199.702 23.4332 198.579 24.0694 197.643 25.3418C196.745 26.6142 196.296 28.3543 196.296 30.5623L196.24 30.45C196.24 36.55 196.315 41.0782 196.465 44.0347H183.048C183.348 38.6457 183.498 31.3482 183.498 22.1421C183.498 12.936 183.348 5.63845 183.048 0.249507H196.409L196.465 17.539L196.409 20.5142C197.307 17.8946 198.635 15.9673 200.394 14.7323C202.19 13.4599 204.211 12.8237 206.457 12.8237C208.702 12.8237 210.648 13.3289 212.295 14.3393C213.941 15.3124 215.176 16.6409 216 18.3249C216.86 20.009 217.291 21.8988 217.291 23.9945V32.078C217.291 37.0552 217.384 41.0408 217.571 44.0347H204.941ZM251.775 30.001H233.475C233.774 31.6476 234.504 32.9948 235.664 34.0427C236.862 35.0531 238.546 35.5583 240.716 35.5583C242.288 35.5583 243.766 35.2589 245.151 34.6602C246.536 34.024 247.64 33.1445 248.463 32.0218C250.97 33.2568 254.301 34.5853 258.455 36.0074C257.295 38.627 255.181 40.7227 252.112 42.2945C249.081 43.8288 245.114 44.596 240.211 44.596C233.849 44.596 229.134 43.1365 226.065 40.2175C223.034 37.2611 221.518 33.3878 221.518 28.5976C221.518 23.9197 223.034 20.1212 226.065 17.2022C229.097 14.2832 233.812 12.8237 240.211 12.8237C244.028 12.8237 247.34 13.4599 250.147 14.7323C252.954 16.0047 255.106 17.7823 256.603 20.0651C258.1 22.3105 258.848 24.8927 258.848 27.8117C258.848 28.7847 258.811 29.5145 258.736 30.001H251.775ZM240.997 21.3001C239.126 21.3001 237.592 21.6556 236.394 22.3666C235.197 23.0777 234.354 24.0507 233.868 25.2856H247.116C246.667 24.0881 245.937 23.1338 244.927 22.4228C243.916 21.6743 242.606 21.3001 240.997 21.3001ZM275.779 21.693C277.351 16.0421 281.261 13.2167 287.511 13.2167C288.596 13.2167 289.644 13.2915 290.654 13.4412L288.858 26.0154C286.164 25.005 283.956 24.4997 282.234 24.4997C280.101 24.4997 278.529 25.1359 277.519 26.4083C276.509 27.6807 276.003 29.3835 276.003 31.5166V31.4605L275.947 35.1654C275.947 37.8224 276.022 40.7788 276.172 44.0347H262.755C263.055 38.6457 263.205 33.5562 263.205 28.766C263.205 23.9758 263.055 18.8488 262.755 13.3851C265.225 13.4973 267.115 13.5535 268.425 13.5535C269.81 13.5535 271.7 13.4973 274.095 13.3851L275.779 21.693Z" fill="white"/>
</svg>
