<svg width="98" height="37" viewBox="0 0 98 37" fill="none" xmlns="http://www.w3.org/2000/svg">
<path fill-rule="evenodd" clip-rule="evenodd" d="M39.589 6L47.9826 11.809L46.7907 14.6833L37.6992 11.1634L39.589 6ZM8 29.4232C8.61969 28.5106 9.13002 27.6607 9.531 26.8733C9.9502 26.086 10.3512 25.1734 10.7339 24.1355C12.028 24.8692 13.5316 25.4418 15.2449 25.8533C16.9582 26.2649 18.5529 26.4707 20.0293 26.4707C21.542 26.4707 22.6083 26.3454 23.228 26.0949C23.8476 25.8265 24.1575 25.5402 24.1575 25.236C24.1575 24.1444 22.4625 23.5987 19.0724 23.5987C15.3543 23.5987 12.6568 23.2229 10.98 22.4713C9.30317 21.7019 8.46477 20.4672 8.46477 18.7672C8.46477 16.3515 9.48543 14.571 11.5268 13.4258C13.5681 12.2806 16.22 11.708 19.4825 11.708C21.378 11.708 23.3191 11.9495 25.3057 12.4327C27.3106 12.8979 29.115 13.5421 30.7189 14.3653C30.1904 15.5463 29.6345 16.9868 29.0512 18.6867C28.9419 19.0446 28.8507 19.313 28.7778 19.492C27.8483 18.7583 26.4449 18.1499 24.5676 17.6667C22.6903 17.1657 21.0317 16.9152 19.5918 16.9152C17.8604 16.9152 16.6939 17.0315 16.0924 17.2641C15.491 17.4789 15.1902 17.801 15.1902 18.2304C15.1902 18.6599 15.6003 19.0088 16.4205 19.2772C17.2589 19.5277 18.4618 19.653 20.0293 19.653C23.8932 19.653 26.7 20.0914 28.4498 20.9682C30.1995 21.8271 31.0743 23.1513 31.0743 24.9407C31.0743 27.4459 30.1448 29.2532 28.2857 30.3627C26.4267 31.4542 23.6107 32 19.8379 32C17.8148 32 15.7552 31.7853 13.6592 31.3558C11.5632 30.9085 9.67681 30.2643 8 29.4232ZM50.9999 28.5643C50.8541 28.3138 50.7812 27.8843 50.7812 27.2759V24.0818C50.7812 21.6124 50.0977 19.7872 48.7308 18.6062C47.382 17.4073 45.3043 16.8078 42.4974 16.8078C40.4925 16.8078 38.7884 17.1657 37.385 17.8815C35.9816 18.5793 34.7331 19.6082 33.6395 20.9682C35.0247 21.684 36.4099 22.525 37.7951 23.4913C36.1547 23.7418 34.9427 24.1981 34.159 24.8602C33.3752 25.5223 32.9834 26.4349 32.9834 27.598C32.9834 29.0117 33.439 30.0764 34.3503 30.7921C35.2799 31.5079 36.6559 31.8658 38.4786 31.8658C40.046 31.8658 41.3309 31.5079 42.3334 30.7921C43.354 30.0764 44.1287 28.9848 44.6572 27.5175V28.1885C44.6572 29.2622 44.9124 30.1479 45.4227 30.8458C45.9331 31.5258 46.9719 31.8658 48.5394 31.8658C49.2502 31.8658 49.8152 31.8479 50.2344 31.8121C50.6719 31.7763 51.1822 31.7137 51.7654 31.6242L51.8748 29.1011C51.4374 28.9938 51.1457 28.8148 50.9999 28.5643ZM40.611 21.9882C41.3218 21.684 42.142 21.5319 43.0715 21.5319C43.5637 21.5319 43.9464 21.6124 44.2198 21.7734C44.4932 21.9166 44.6299 22.0955 44.6299 22.3103C44.6299 22.5608 44.4932 22.7666 44.2198 22.9276C43.9464 23.0887 43.4725 23.1692 42.7982 23.1692C41.1578 23.1692 39.7908 23.2318 38.6973 23.3571C39.2623 22.7487 39.9002 22.2924 40.611 21.9882ZM42.9622 26.927C42.142 27.3028 41.2216 27.4906 40.2009 27.4906C39.2532 27.4906 38.7793 27.2312 38.7793 26.7122C38.7793 26.2291 39.2896 25.8891 40.3103 25.6923L41.2945 25.5312C42.0418 25.4239 42.6797 25.3165 43.2082 25.2091C43.7368 25.0839 44.2198 24.9139 44.6572 24.6991V25.397C44.3474 26.0233 43.7824 26.5333 42.9622 26.927ZM64.1832 31.7316C64.2926 29.1011 64.3472 26.6765 64.3472 24.4576C64.3472 23.6702 64.1468 23.0439 63.7458 22.5787C63.363 22.1134 62.8709 21.8808 62.2695 21.8808C61.668 21.8808 61.1577 22.1492 60.7385 22.6861C60.3193 23.205 60.0732 23.9208 60.0003 24.8334C59.9639 26.1933 59.9456 27.1596 59.9456 27.7322C59.9456 28.949 59.9821 30.2821 60.055 31.7316H53.5209C53.6667 29.1548 53.7396 26.7212 53.7396 24.4307C53.7396 22.1403 53.6667 19.6888 53.5209 17.0762C54.7238 17.1299 55.6443 17.1567 56.2822 17.1567C56.9565 17.1567 57.877 17.1299 59.0434 17.0762L59.8363 21.0219C60.2555 19.5904 60.9116 18.5346 61.8047 17.8546C62.6978 17.1567 63.7367 16.8078 64.9214 16.8078C66.0149 16.8078 66.9627 17.0494 67.7646 17.5325C68.5666 17.9978 69.1681 18.633 69.569 19.4383C69.9882 20.2435 70.1978 21.1471 70.1978 22.1492V26.0144C70.1978 28.3943 70.2434 30.3 70.3345 31.7316H64.1832ZM81.3608 32C79.8298 32 78.2715 31.7942 76.6858 31.3826C75.1183 30.9532 73.642 30.309 72.2568 29.4501L75.1274 25.6118C75.9659 26.2023 76.9774 26.6675 78.1621 27.0075C79.3468 27.3296 80.3675 27.4906 81.2241 27.4906C82.0443 27.4906 82.6731 27.3833 83.1105 27.1685C83.5662 26.9359 83.794 26.6407 83.794 26.2828C83.794 25.9965 83.6846 25.7728 83.4659 25.6118C83.2472 25.4507 82.9465 25.3702 82.5637 25.3702C82.3268 25.3702 82.0534 25.3791 81.7436 25.397C81.4519 25.4149 81.215 25.4328 81.0327 25.4507C80.085 25.5581 79.1099 25.6118 78.1074 25.6118C76.4853 25.6118 75.1639 25.3165 74.1432 24.726C73.1408 24.1176 72.6396 23.1334 72.6396 21.7734C72.6396 20.1988 73.396 18.9819 74.9087 18.123C76.4215 17.2462 78.6451 16.8078 81.5795 16.8078C83.0194 16.8078 84.4684 17.0136 85.9265 17.4252C87.4028 17.8188 88.7059 18.4183 89.836 19.2235L86.6919 22.3371C85.6531 21.8003 84.678 21.4245 83.7667 21.2098C82.8736 20.9772 81.9714 20.8608 81.0601 20.8608C80.4222 20.8608 79.8754 20.9861 79.4197 21.2366C78.9641 21.4871 78.7362 21.7734 78.7362 22.0955C78.7362 22.3461 78.8274 22.5429 79.0096 22.6861C79.2101 22.8292 79.4653 22.9008 79.7751 22.9008C80.085 22.9008 80.5133 22.8739 81.0601 22.8203C82.3906 22.7308 83.3839 22.6861 84.04 22.6861C85.9356 22.6861 87.4028 22.9992 88.4417 23.6255C89.4806 24.2518 90 25.2091 90 26.4975C90 28.4301 89.2345 29.8348 87.7035 30.7116C86.1725 31.5705 84.0583 32 81.3608 32Z" fill="#222222"/>
</svg>
